<svg width="512" height="512" viewBox="0 0 512 512" fill="none" xmlns="http://www.w3.org/2000/svg">
<g clip-path="url(#clip0)">
<path d="M458.614 138.609L154.615 442.608C148.791 448.433 139.277 448.49 133.396 442.608L69.396 378.608C63.546 372.748 63.546 363.248 69.396 357.388C75.2919 351.493 369.284 57.5 373.394 53.39C379.254 47.54 388.754 47.54 394.614 53.39L458.614 117.39C464.464 123.25 464.464 132.75 458.614 138.609V138.609Z" fill="#B1D5F1"/>
<path d="M458.614 138.61L154.616 442.608C148.792 448.433 139.277 448.49 133.396 442.608L101.396 410.608L426.614 85.39L458.614 117.39C464.464 123.25 464.464 132.75 458.614 138.61V138.61Z" fill="#8BB9FF"/>
<path d="M507.613 25.61L474.613 58.61C471.683 61.54 467.843 63 464.003 63C450.693 63 443.978 46.821 453.393 37.39L486.393 4.39C492.253 -1.46 501.753 -1.46 507.613 4.39C513.463 10.25 513.463 19.75 507.613 25.61Z" fill="#0D8EBC"/>
<path d="M507.613 25.61L474.613 58.61C468.789 64.435 459.274 64.492 453.393 58.61L507.613 4.38995C513.463 10.25 513.463 19.75 507.613 25.61Z" fill="#0A617D"/>
<path d="M496.004 101.22L458.614 138.61L373.394 53.39C388.582 38.202 388.431 38.352 410.784 16C422.522 4.28197 441.466 4.26297 453.223 16C468.086 30.863 480.856 43.633 496.003 58.78C507.716 70.492 507.705 89.52 496.004 101.22V101.22Z" fill="#CC0099"/>
<path d="M496.004 101.22L458.614 138.61L416.004 95.9998L474.614 37.3898L496.004 58.7798C507.716 70.4918 507.705 89.5198 496.004 101.22V101.22Z" fill="black" fill-opacity="0.26"/>
<path d="M54.616 478.607L25.616 507.607C22.686 510.537 18.846 511.997 15.006 511.997C1.69597 511.997 -5.01903 495.818 4.39597 486.387L33.396 457.387C39.256 451.537 48.756 451.537 54.616 457.387C60.466 463.247 60.466 472.747 54.616 478.607Z" fill="#0D8EBC"/>
<path d="M54.616 457.388C60.466 463.248 60.466 472.748 54.616 478.608L25.616 507.608C19.792 513.433 10.277 513.49 4.396 507.608L54.616 457.388Z" fill="#0A617D"/>
<path d="M152.606 444.288L72.6059 500.288C66.5929 504.497 58.5099 503.706 53.3959 498.608L13.3959 458.608C8.25591 453.458 7.54591 445.358 11.7159 439.398L67.7159 359.398C72.4199 364.102 147.892 439.574 152.606 444.288Z" fill="#CC0099"/>
<path d="M110.166 401.848L152.606 444.288L72.6058 500.288C66.5928 504.497 58.5098 503.706 53.3958 498.608L33.3958 478.608L110.166 401.848Z" fill="black" fill-opacity="0.26"/>
<path d="M481.993 208.379L369.924 307.248C363.697 312.732 354.243 312.128 348.754 305.918C343.274 299.708 343.864 290.228 350.084 284.748L462.143 185.879C468.592 180.171 468.975 170.191 462.813 164.029C392.422 93.6374 416.411 117.628 362.794 63.9996C362.794 63.8996 361.933 64.8506 384.004 42.7797C402.431 61.2076 462.536 121.313 484.033 142.809C502.303 161.101 501.498 191.146 481.993 208.379V208.379Z" fill="#0D8EBC"/>
<path d="M484.033 142.809C502.303 161.101 501.498 191.145 481.993 208.379L369.924 307.248C367.074 309.758 363.534 310.998 360.014 310.998C346.303 310.998 339.674 293.92 350.084 284.748L462.143 185.879C468.592 180.171 468.975 170.191 462.813 164.029L405.394 106.609L426.614 85.3895C448.957 107.734 463.013 121.79 484.033 142.809Z" fill="#0A617D"/>
</g>
<defs>
<clipPath id="clip0">
<rect width="512" height="512" fill="white"/>
</clipPath>
</defs>
</svg>
